<?xml version="1.0" encoding="utf-8"?>
<!-- Generator: Adobe Illustrator 19.2.1, SVG Export Plug-In . SVG Version: 6.00 Build 0)  -->
<svg version="1.1" id="Layer_1" xmlns="http://www.w3.org/2000/svg" xmlns:xlink="http://www.w3.org/1999/xlink" x="0px" y="0px"
	 viewBox="0 0 20 20" style="enable-background:new 0 0 20 20;" xml:space="preserve">
<style type="text/css">
	.st0{fill:#75AADB;}
</style>
<path class="st0" d="M4,11.3h1.3v1.3H4c-2,0-4-2.3-4-4.7s2.1-4.7,4-4.7h5.3c1.9,0,4,2.3,4,4.7c0,1.9-1.2,3.6-2.7,4.3v-1.5
	C11.4,10.2,12,9.1,12,8c0-1.7-1.4-3.3-2.7-3.3H4C2.7,4.7,1.3,6.3,1.3,8S2.7,11.3,4,11.3z M16,7.3h-1.3v1.3H16c1.3,0,2.7,1.6,2.7,3.3
	s-1.4,3.3-2.7,3.3h-5.3C9.4,15.3,8,13.7,8,12c0-1.1,0.6-2.2,1.3-2.8V7.7C7.9,8.4,6.7,10.1,6.7,12c0,2.4,2.1,4.7,4,4.7H16
	c1.9,0,4-2.3,4-4.7S18,7.3,16,7.3z"/>
</svg>
